# xmcd
#
# Track frame offsets:
#	150
#	15797
#	31977
#	42102
#	53596
#	66725
#	85459
#	99482
#	105818
#	117070
#	131037
#	149296
#	164357
#	175044
#	191599
#	203485
#
# Disc length: 2968 seconds
#
# Revision: 1
# Processed by: cddbd v1.5.2PL0 Copyright (c) Steve Scherf et al.
# Submitted via: audiograbber 1.83.01
#
DISCID=c90b9610
DTITLE=Franska Trion - Franska Trion sings and plays the blues
DYEAR=2007
DGENRE=Blues
TTITLE0=Fastlåst i kärlek
TTITLE1=Vad har jag gjort med dig
TTITLE2=Kom alla brudar
TTITLE3=Jag är befriad
TTITLE4=Förnekelsens mur
TTITLE5=Jag fann sann kärlek
TTITLE6=Om du tror att du har ett hjärta
TTITLE7=Landsortspojke
TTITLE8=Tidens gång
TTITLE9=Skaka dom älskling
TTITLE10=Kring de små husen
TTITLE11=Solen skiner
TTITLE12=Vilken natt
TTITLE13=Lånad tid
TTITLE14=Jag har försonats
TTITLE15=Godnatt Irene
EXTD=
EXTT0=
EXTT1=
EXTT2=
EXTT3=
EXTT4=
EXTT5=
EXTT6=
EXTT7=
EXTT8=
EXTT9=
EXTT10=
EXTT11=
EXTT12=
EXTT13=
EXTT14=
EXTT15=
PLAYORDER=
